HIERARCHY
ROOT root     
{
	OFFSET 0.0000 0.0000 0.0000
	CHANNELS 6 Xposition Yposition Zposition Zrotation Yrotation Xrotation
	JOINT pelvis   
	{
		OFFSET 0.0000 0.0000 0.0000
		CHANNELS 3 Zrotation Yrotation Xrotation
		JOINT thorax   
		{
			OFFSET 0.0000 23.0750 -5.0000
			CHANNELS 3 Zrotation Yrotation Xrotation
			JOINT rclavicle
			{
				OFFSET 0.0000 28.0009 0.0000
				CHANNELS 3 Zrotation Yrotation Xrotation
				JOINT rhumerus 
				{
					OFFSET -18.5725 5.5939 0.0000
					CHANNELS 3 Zrotation Yrotation Xrotation
					JOINT rradius  
					{
						OFFSET -24.8459 0.0000 0.0000
						CHANNELS 3 Zrotation Yrotation Xrotation
						JOINT rhand    
						{
							OFFSET -24.5477 0.0000 0.0000
							CHANNELS 3 Zrotation Yrotation Xrotation
							End Site
							{
								OFFSET -8.1826 0.0000 0.0000
							}
						}
					}
				}
			}
			JOINT lclavicle
			{
				OFFSET 0.0000 28.0009 0.0000
				CHANNELS 3 Zrotation Yrotation Xrotation
				JOINT lhumerus 
				{
					OFFSET 18.5725 5.5939 0.0000
					CHANNELS 3 Zrotation Yrotation Xrotation
					JOINT lradius  
					{
						OFFSET 24.8459 0.0000 0.0000
						CHANNELS 3 Zrotation Yrotation Xrotation
						JOINT lhand    
						{
							OFFSET 24.5477 0.0000 0.0000
							CHANNELS 3 Zrotation Yrotation Xrotation
							End Site
							{
								OFFSET 8.1826 0.0000 0.0000
							}
						}
					}
				}
			}
			JOINT head     
			{
				OFFSET 0.0000 35.2030 0.0000
				CHANNELS 3 Zrotation Yrotation Xrotation
				End Site
				{
					OFFSET 0.0000 11.7343 0.0000
				}
			}
		}
		JOINT rfemur   
		{
			OFFSET -8.2817 0.0000 0.0000
			CHANNELS 3 Zrotation Yrotation Xrotation
			JOINT rtibia   
			{
				OFFSET 0.0000 -43.3627 0.0000
				CHANNELS 3 Zrotation Yrotation Xrotation
				JOINT rfoot    
				{
					OFFSET 0.0000 -38.2947 0.0000
					CHANNELS 3 Zrotation Yrotation Xrotation
					JOINT rtoes    
					{
						OFFSET 0.0000 0.0000 16.6054
						CHANNELS 3 Zrotation Yrotation Xrotation
						End Site
						{
							OFFSET 0.0000 0.0000 5.5351
						}
					}
				}
			}
		}
		JOINT lfemur   
		{
			OFFSET 8.2817 0.0000 0.0000
			CHANNELS 3 Zrotation Yrotation Xrotation
			JOINT ltibia   
			{
				OFFSET 0.0000 -43.3627 0.0000
				CHANNELS 3 Zrotation Yrotation Xrotation
				JOINT lfoot    
				{
					OFFSET 0.0000 -38.2947 0.0000
					CHANNELS 3 Zrotation Yrotation Xrotation
					JOINT ltoes    
					{
						OFFSET 0.0000 0.0000 16.6054
						CHANNELS 3 Zrotation Yrotation Xrotation
						End Site
						{
							OFFSET 0.0000 0.0000 5.5351
						}
					}
				}
			}
		}
	}
}
MOTION
Frames: 13
Frame Time: .0333333
-7.974 81.734 15.521 -86.4958 81.5071 -71.0145 0 -0 0 -1.20708 1.47412 -5.35547 24.1725 -9.33778 -3.78351e-05 38.0302 14.6735 13.0753 -180 86.3051 -180 -0.995187 7.91835 -0.068899 -16.7065 19.6313 -5.95464e-05 -38.52 28.1747 11.1702 -2.34714e-06 -83.957 2.6089e-06 0.835001 3.17852 0.0232001 4.37724 12.9815 -11.7579 6.4452 -20.3954 -10.3369 -0 -0 48.5764 -1.1014e-05 21.7033 12.0378 4.74531 -5.06472e-05 -76.2929 -12.7532 4.75082 -38.5423 -0 -0 25.303 2.37018e-06 7.76408 -1.19176 179.837 -3.5247e-07 -6.56133 
-7.0013 81.172 15.486 -85.6527 81.3626 -70.2625 0 -0 0 -1.36697 1.28444 -5.42703 24.1805 -9.12903 4.70091e-05 38.2418 15.3067 12.5567 -180 86.566 -180 -1.39002 8.73578 -0.106202 -17.022 19.8181 -3.78164e-05 -38.4231 27.8854 11.0692 1.3055e-06 -82.9653 -1.15429e-06 0.790701 3.35209 0.0230999 4.10461 13.2239 -11.7135 5.85408 -20.5542 -11.484 -0 -0 52.1424 7.10776e-05 22.3615 13.245 5.38447 4.79772e-05 -77.5354 -12.1468 3.50354 -39.5658 -0 -0 28.7787 -3.72509e-06 8.50686 -2.6007 179.611 3.34699e-07 -11.3213 
-6.0494 80.657 15.398 -84.3699 81.2867 -69.1094 0 -0 0 -1.55343 1.20412 -5.42087 24.1287 -8.89017 2.40091e-07 38.6316 15.8484 12.0276 -180 87.0204 -180 -1.81801 9.63547 -0.153201 -17.4796 20.0339 5.58637e-05 -38.2957 27.1938 10.9646 0 -81.7758 0 0.953611 3.63532 0.0303006 3.64887 13.4893 -11.7039 5.15889 -20.4841 -12.7205 -0 -0 55.7012 1.47571e-06 22.4738 14.4894 5.90935 2.90283e-05 -78.3371 -11.7192 2.45593 -40.4359 -0 -0 32.0754 -2.49385e-06 9.24711 -3.98979 179.351 -1.61526e-06 -14.7245 
-5.1185 80.206 15.254 -82.6502 81.2918 -67.5582 0 -0 0 -1.7781 1.24444 -5.34566 24.0257 -8.62364 9.99839e-05 39.1838 16.2716 11.492 -180 87.6293 -180 -2.28989 10.5638 -0.211698 -18.0722 20.2482 -6.04022e-05 -38.1355 26.1375 10.8537 -2.34303e-06 -80.4249 2.77141e-06 1.33151 4.01068 0.0466001 3.0108 13.7842 -11.7188 4.36893 -20.1728 -14.0373 -0 -0 59.1899 8.60711e-05 21.9806 15.6791 6.22526 7.25067e-05 -78.6578 -11.4913 1.61123 -41.0683 -0 -0 34.9983 -7.93492e-06 10.0122 -5.34399 179.058 1.58503e-06 -16.9625 
-4.2101 79.83 15.056 -80.5537 81.3686 -65.6593 0 -0 0 -2.04513 1.406 -5.21793 23.8858 -8.32882 -5.72745e-05 39.8769 16.5516 10.9498 -180 88.4298 -180 -2.80775 11.4582 -0.281796 -18.7703 20.4442 -1.48163e-05 -37.9608 24.7506 10.7474 0 -78.9233 0 1.91636 4.44815 0.074399 2.19692 14.1207 -11.7481 3.50132 -19.6256 -15.4301 -0 -0 62.5581 3.94603e-05 20.8638 16.7306 6.26156 -3.77579e-06 -78.4812 -11.464 0.951114 -41.4213 -0 -0 37.4178 1.44665e-06 10.8147 -6.65162 178.732 -8.92852e-06 -18.2557 
-3.3254 79.54 14.809 -78.1884 81.4895 -63.5103 0 -0 0 -2.3341 1.68044 -5.05623 23.7139 -8.00647 -4.68644e-05 40.6794 16.6745 10.3969 -180 89.3683 -180 -3.36858 12.2508 -0.361601 -19.5541 20.5983 2.45323e-05 -37.7805 23.092 10.6498 1.07433e-06 -77.3294 -8.59585e-07 2.683 4.91053 0.1151 1.21437 14.5074 -11.7807 2.59215 -18.8505 -16.8903 -0 -0 65.7492 -0.000143186 19.1493 17.5723 5.98528 -6.88924e-06 -77.7966 -11.6074 0.45113 -41.481 -0 -0 39.2669 8.42448e-06 11.6408 -7.89494 178.379 -7.93432e-06 -18.7906 
-2.4644 79.339 14.523 -75.7199 81.6318 -61.2677 0 -0 0 -2.60473 2.05084 -4.87662 23.5158 -7.65647 -2.77093e-05 41.5519 16.6374 9.82816 -2.77857e-05 89.4074 -2.80363e-05 -3.96203 12.8732 -0.447103 -20.4018 20.6916 0.000106097 -37.6075 21.237 10.5634 0 -75.6892 0 3.59012 5.35799 0.168 0.0712211 14.9592 -11.8073 1.69022 -17.8619 -18.4031 -0 -0 68.707 -6.82583e-05 16.9028 18.1517 5.40819 1.91322e-05 -76.6078 -11.8684 0.0833726 -41.255 -0 -0 40.5307 -4.67102e-06 12.4517 -9.0444 178.012 1.1488e-05 -18.7314 
-1.6245 79.226 14.207 -73.3805 81.7774 -59.161 0 -0 0 -2.82247 2.49508 -4.68745 23.2958 -7.2839 2.80005e-05 42.4465 16.4506 9.24073 -4.18727e-06 88.2482 -4.31797e-06 -4.5726 13.2637 -0.531903 -21.2863 20.7129 9.48177e-05 -37.4572 19.2596 10.4972 -9.36503e-07 -74.0647 1.24131e-06 4.58359 5.75202 0.230407 -1.21622 15.4838 -11.8223 0.828746 -16.6856 -19.9388 -0 -0 71.383 1.68602e-05 14.2322 18.4337 4.58546 2.9709e-05 -74.9204 -12.1945 -0.1864 -40.7586 -0 -0 41.2256 -4.6116e-05 13.1972 -10.0602 177.654 2.74286e-06 -18.217 
-0.8024 79.197 13.871 -71.4502 81.8921 -57.4645 0 -0 0 -2.95192 2.98521 -4.49536 23.0609 -6.89581 -6.52446e-05 43.3177 16.1313 8.63737 -4.03426e-06 86.8837 -3.82073e-06 -5.178 13.3702 -0.607302 -22.1805 20.6542 -0.00014004 -37.3419 17.2326 10.4595 0 -72.5204 -0 5.59964 6.06092 0.296705 -2.62658 16.0914 -11.8231 0.0386895 -15.3511 -21.465 -0 -0 73.7359 9.36606e-06 11.2695 18.408 3.60053 9.43318e-06 -72.7704 -12.5292 -0.393235 -40.0154 -0 -0 41.3989 2.84869e-06 13.8216 -10.8999 177.336 -4.33259e-06 -17.4009 
0.0054 79.244 13.521 -70.1726 81.9929 -56.4223 0 -0 0 -2.97085 3.48939 -4.30349 22.8226 -6.50748 5.31029e-05 44.1124 15.7097 8.03075 -7.50235e-06 85.4503 -7.57848e-06 -5.75149 13.1585 -0.663879 -23.0544 20.5162 2.49828e-05 -37.2739 15.2176 10.4634 0 -71.1138 0 6.57179 6.2634 0.359999 -4.12908 16.7837 -11.8084 -0.66392 -13.8921 -22.954 -0 -0 75.7375 -1.56354e-05 8.16528 18.0807 2.54971 1.36284e-05 -70.1514 -12.8286 -0.576349 -39.055 -0 -0 41.1153 3.23315e-05 14.277 -11.5283 177.089 1.12617e-05 -16.467 
0.8007 79.359 13.166 -69.8537 82.0564 -56.3289 0 -0 0 -2.85924 3.97203 -4.12105 22.5888 -6.13253 -2.4303e-05 44.7922 15.2069 7.43981 -2.13304e-06 83.9611 -1.9193e-06 -6.25586 12.6177 -0.692337 -23.8837 20.3046 0.000159445 -37.2605 13.2658 10.5206 0 -69.8896 0 7.43638 6.35226 0.413202 -5.69009 17.5598 -11.7808 -1.26105 -12.3427 -24.3854 -0 -0 77.3691 -2.51232e-05 5.06307 17.4842 1.52482 2.68408e-06 -67.154 -13.05 -0.774115 -37.9197 -0 -0 40.4603 3.3162e-05 14.5306 -11.9222 176.935 5.28038e-06 -15.5967 
1.5838 79.531 12.809 -70.7089 82.1052 -57.3906 0 -0 0 -2.614 4.39726 -3.95726 22.3724 -5.78891 -3.00301e-05 45.3203 14.6446 6.88954 -0 82.457 -0 -6.6494 11.7593 -0.685529 -24.6458 20.0349 -4.91689e-05 -37.3093 11.4019 10.6487 9.773e-07 -68.8872 -6.70254e-07 8.13935 6.33218 0.451005 -7.26944 18.4147 -11.7443 -1.74982 -10.7373 -25.7469 -0 -0 78.6271 -9.08576e-06 2.09439 16.6657 0.600891 1.26864e-06 -63.8588 -13.1681 -1.02769 -36.6591 -0 -0 39.5196 4.62933e-07 14.5699 -12.0748 176.888 5.17793e-06 -14.9481 
2.3539 79.751 12.454 -72.9445 82.1327 -59.7991 0 -0 0 -2.24403 4.73089 -3.82512 22.181 -5.49521 -1.5145e-05 45.6788 14.0369 6.40956 -0 80.9749 -0 -6.88783 10.6259 -0.641306 -25.324 19.7167 4.20091e-05 -37.4139 9.64074 10.8633 9.49152e-07 -68.1263 -6.4172e-07 8.63995 6.21929 0.470296 -8.82404 19.3335 -11.7038 -2.1348 -9.11376 -27.0369 -0 -0 79.5182 1.33861e-06 -0.634604 15.6723 -0.171396 2.08731e-06 -60.3074 -13.1686 -1.37523 -35.3215 -0 -0 38.3874 -9.98636e-05 14.405 -11.9949 176.945 -1.27517e-06 -14.6153 
